STARTFONT 2.1
FONT -Adobe-ITC Bookman-Demi-R-Normal--14-100-100-100-P-88-ISO8859-1
SIZE 10 100 100
FONTBOUNDINGBOX 20 15 -2 -4

STARTPROPERTIES 26
_DEC_DEVICE_FONTNAMES "PS=Bookman-Demi"
FONTNAME_REGISTRY ""
FAMILY_NAME "ITC Bookman"
FOUNDRY "Adobe"
WEIGHT_NAME "Demi"
SLANT "R"
SETWIDTH_NAME "Normal"
ADD_STYLE_NAME ""
PIXEL_SIZE 14
POINT_SIZE 100
RESOLUTION_X 100
RESOLUTION_Y 100
SPACING "P"
AVERAGE_WIDTH 88
CHARSET_REGISTRY "ISO8859"
CHARSET_ENCODING "1"
CHARSET_COLLECTIONS "ASCII ISO8859-1 ADOBE-STANDARD"
FULL_NAME "ITC Bookman Demi"
COPYRIGHT "Copyright (c) 1991 Adobe Systems, Inc."
CAP_HEIGHT 10
X_HEIGHT 7
WEIGHT 10
QUAD_WIDTH 11
DEFAULT_CHAR 0
FONT_DESCENT 4
FONT_ASCENT 11
ENDPROPERTIES

CHARS 190

STARTCHAR space
ENCODING 32
SWIDTH 399 0
DWIDTH 5 0
BBX 1 1 0 0
BITMAP
00
ENDCHAR

STARTCHAR exclam
ENCODING 33
SWIDTH 365 0
DWIDTH 5 0
BBX 2 10 1 0
BITMAP
C0
C0
C0
C0
C0
C0
C0
00
C0
C0
ENDCHAR

STARTCHAR quotedbl
ENCODING 34
SWIDTH 431 0
DWIDTH 6 0
BBX 3 4 1 6
BITMAP
A0
A0
A0
A0
ENDCHAR

STARTCHAR numbersign
ENCODING 35
SWIDTH 647 0
DWIDTH 9 0
BBX 8 10 0 0
BITMAP
12
12
12
7F
24
24
FE
48
48
48
ENDCHAR

STARTCHAR dollar
ENCODING 36
SWIDTH 667 0
DWIDTH 9 0
BBX 8 12 0 -1
BITMAP
18
18
7E
C7
F0
7E
3F
C7
E3
7E
18
18
ENDCHAR

STARTCHAR percent
ENCODING 37
SWIDTH 936 0
DWIDTH 13 0
BBX 12 10 0 0
BITMAP
7180
D980
DB00
DB00
7600
06E0
0DB0
0DB0
19B0
18E0
ENDCHAR

STARTCHAR ampersand
ENCODING 38
SWIDTH 792 0
DWIDTH 13 0
BBX 11 10 1 0
BITMAP
3C00
7600
7200
3EE0
3CC0
7E80
E780
C380
E7C0
7CE0
ENDCHAR

STARTCHAR quoteright
ENCODING 39
SWIDTH 324 0
DWIDTH 5 0
BBX 2 4 1 6
BITMAP
C0
C0
40
80
ENDCHAR

STARTCHAR parenleft
ENCODING 40
SWIDTH 310 0
DWIDTH 6 0
BBX 4 13 1 -3
BITMAP
30
60
60
C0
C0
C0
C0
C0
C0
C0
60
60
30
ENDCHAR

STARTCHAR parenright
ENCODING 41
SWIDTH 310 0
DWIDTH 6 0
BBX 4 13 1 -3
BITMAP
C0
60
60
30
30
30
30
30
30
30
60
60
C0
ENDCHAR

STARTCHAR asterisk
ENCODING 42
SWIDTH 466 0
DWIDTH 8 0
BBX 6 5 0 5
BITMAP
30
FC
78
FC
30
ENDCHAR

STARTCHAR plus
ENCODING 43
SWIDTH 620 0
DWIDTH 9 0
BBX 7 7 1 0
BITMAP
10
10
10
FE
10
10
10
ENDCHAR

STARTCHAR comma
ENCODING 44
SWIDTH 342 0
DWIDTH 5 0
BBX 2 4 1 -2
BITMAP
C0
C0
40
80
ENDCHAR

STARTCHAR minus
ENCODING 45
SWIDTH 606 0
DWIDTH 9 0
BBX 7 1 1 3
BITMAP
FE
ENDCHAR

STARTCHAR period
ENCODING 46
SWIDTH 346 0
DWIDTH 5 0
BBX 2 2 1 0
BITMAP
C0
C0
ENDCHAR

STARTCHAR slash
ENCODING 47
SWIDTH 380 0
DWIDTH 6 0
BBX 5 13 0 -3
BITMAP
08
18
18
10
30
30
20
60
60
40
C0
C0
80
ENDCHAR

STARTCHAR zero
ENCODING 48
SWIDTH 667 0
DWIDTH 9 0
BBX 8 10 0 0
BITMAP
3C
7E
E7
C3
C3
C3
C3
E7
7E
3C
ENDCHAR

STARTCHAR one
ENCODING 49
SWIDTH 667 0
DWIDTH 9 0
BBX 6 10 1 0
BITMAP
70
F0
30
30
30
30
30
30
78
FC
ENDCHAR

STARTCHAR two
ENCODING 50
SWIDTH 667 0
DWIDTH 9 0
BBX 8 10 0 0
BITMAP
3C
7E
C7
C7
06
0C
18
73
EF
FE
ENDCHAR

STARTCHAR three
ENCODING 51
SWIDTH 667 0
DWIDTH 9 0
BBX 7 10 0 0
BITMAP
7C
EE
C6
06
1C
1C
06
C6
EE
7C
ENDCHAR

STARTCHAR four
ENCODING 52
SWIDTH 667 0
DWIDTH 9 0
BBX 8 10 0 0
BITMAP
0E
1E
16
36
66
66
FF
FF
06
0F
ENDCHAR

STARTCHAR five
ENCODING 53
SWIDTH 667 0
DWIDTH 9 0
BBX 8 10 0 0
BITMAP
FF
FE
C0
DC
FE
07
03
C7
EE
7C
ENDCHAR

STARTCHAR six
ENCODING 54
SWIDTH 667 0
DWIDTH 9 0
BBX 8 10 0 0
BITMAP
3C
7E
E7
C0
DC
FE
C3
C3
7E
3C
ENDCHAR

STARTCHAR seven
ENCODING 55
SWIDTH 667 0
DWIDTH 9 0
BBX 8 10 0 0
BITMAP
FF
FF
C6
0C
1C
18
38
30
70
70
ENDCHAR

STARTCHAR eight
ENCODING 56
SWIDTH 667 0
DWIDTH 9 0
BBX 8 10 0 0
BITMAP
3C
7E
C3
E6
7C
7E
E7
C3
7E
3C
ENDCHAR

STARTCHAR nine
ENCODING 57
SWIDTH 667 0
DWIDTH 9 0
BBX 8 10 0 0
BITMAP
3C
7E
C3
C3
FF
3B
03
E3
7E
3C
ENDCHAR

STARTCHAR colon
ENCODING 58
SWIDTH 346 0
DWIDTH 5 0
BBX 2 7 1 0
BITMAP
C0
C0
00
00
00
C0
C0
ENDCHAR

STARTCHAR semicolon
ENCODING 59
SWIDTH 348 0
DWIDTH 5 0
BBX 2 9 1 -2
BITMAP
C0
C0
00
00
00
C0
C0
40
80
ENDCHAR

STARTCHAR less
ENCODING 60
SWIDTH 620 0
DWIDTH 9 0
BBX 8 7 0 0
BITMAP
07
1C
70
C0
70
1C
07
ENDCHAR

STARTCHAR equal
ENCODING 61
SWIDTH 620 0
DWIDTH 9 0
BBX 6 3 1 2
BITMAP
FC
00
FC
ENDCHAR

STARTCHAR greater
ENCODING 62
SWIDTH 620 0
DWIDTH 9 0
BBX 8 7 0 0
BITMAP
E0
38
0E
03
0E
38
E0
ENDCHAR

STARTCHAR question
ENCODING 63
SWIDTH 669 0
DWIDTH 10 0
BBX 7 10 1 0
BITMAP
7C
CE
C6
0E
1C
38
30
00
30
30
ENDCHAR

STARTCHAR at
ENCODING 64
SWIDTH 819 0
DWIDTH 13 0
BBX 11 11 1 -1
BITMAP
0F00
30C0
6040
4DA0
9B20
9320
A620
A640
9D80
4000
3F80
ENDCHAR

STARTCHAR A
ENCODING 65
SWIDTH 729 0
DWIDTH 10 0
BBX 11 10 -1 0
BITMAP
0E00
0E00
1F00
1B00
1300
3F80
3F80
61C0
60C0
F1E0
ENDCHAR

STARTCHAR B
ENCODING 66
SWIDTH 720 0
DWIDTH 11 0
BBX 10 10 0 0
BITMAP
FF00
7F80
6180
6180
7F00
7F80
60C0
61C0
7F80
FF00
ENDCHAR

STARTCHAR C
ENCODING 67
SWIDTH 731 0
DWIDTH 11 0
BBX 10 10 0 0
BITMAP
3E80
7F80
E180
C080
C000
C000
C000
E1C0
7F80
3F00
ENDCHAR

STARTCHAR D
ENCODING 68
SWIDTH 782 0
DWIDTH 11 0
BBX 10 10 0 0
BITMAP
FE00
7F80
61C0
60C0
60C0
60C0
60C0
61C0
7F80
FE00
ENDCHAR

STARTCHAR E
ENCODING 69
SWIDTH 724 0
DWIDTH 10 0
BBX 9 10 0 0
BITMAP
FF00
7F00
6180
6400
7C00
7C00
6400
6180
7F00
FF00
ENDCHAR

STARTCHAR F
ENCODING 70
SWIDTH 687 0
DWIDTH 10 0
BBX 9 10 0 0
BITMAP
FF00
7F00
6180
6400
7C00
7C00
6400
6000
6000
F800
ENDCHAR

STARTCHAR G
ENCODING 71
SWIDTH 780 0
DWIDTH 11 0
BBX 11 10 0 0
BITMAP
3E80
7F80
E180
C080
C000
C3E0
C1C0
E0C0
7FC0
3EC0
ENDCHAR

STARTCHAR H
ENCODING 72
SWIDTH 820 0
DWIDTH 12 0
BBX 11 10 0 0
BITMAP
F1E0
60C0
60C0
60C0
7FC0
7FC0
60C0
60C0
60C0
F1E0
ENDCHAR

STARTCHAR I
ENCODING 73
SWIDTH 399 0
DWIDTH 5 0
BBX 4 10 0 0
BITMAP
F0
60
60
60
60
60
60
60
60
F0
ENDCHAR

STARTCHAR J
ENCODING 74
SWIDTH 642 0
DWIDTH 10 0
BBX 9 10 0 0
BITMAP
0780
0300
0300
0300
0300
C300
E300
C700
7E00
3C00
ENDCHAR

STARTCHAR K
ENCODING 75
SWIDTH 790 0
DWIDTH 11 0
BBX 10 10 0 0
BITMAP
F3C0
6300
6600
6C00
7800
7C00
6E00
6700
6380
F3C0
ENDCHAR

STARTCHAR L
ENCODING 76
SWIDTH 641 0
DWIDTH 9 0
BBX 9 10 0 0
BITMAP
F000
6000
6000
6000
6000
6000
6000
6180
7F00
FE00
ENDCHAR

STARTCHAR M
ENCODING 77
SWIDTH 945 0
DWIDTH 15 0
BBX 14 10 0 0
BITMAP
F87C
7878
7C78
6CD8
6CD8
6ED8
6798
6798
6318
F33C
ENDCHAR

STARTCHAR N
ENCODING 78
SWIDTH 745 0
DWIDTH 12 0
BBX 11 10 0 0
BITMAP
F9E0
78C0
6CC0
6CC0
66C0
66C0
63C0
63C0
61C0
F1C0
ENDCHAR

STARTCHAR O
ENCODING 79
SWIDTH 803 0
DWIDTH 11 0
BBX 10 10 0 0
BITMAP
3F00
7F80
E1C0
C0C0
C0C0
C0C0
C0C0
E1C0
7F80
3F00
ENDCHAR

STARTCHAR P
ENCODING 80
SWIDTH 659 0
DWIDTH 10 0
BBX 9 10 0 0
BITMAP
FF00
7F80
6180
6180
7F80
7F00
6000
6000
6000
F000
ENDCHAR

STARTCHAR Q
ENCODING 81
SWIDTH 790 0
DWIDTH 11 0
BBX 10 13 0 -3
BITMAP
3F00
7F80
E1C0
C0C0
C0C0
C0C0
C0C0
E780
7D00
1F80
60C0
7FC0
1F80
ENDCHAR

STARTCHAR R
ENCODING 82
SWIDTH 776 0
DWIDTH 11 0
BBX 10 10 0 0
BITMAP
FF00
7F80
6180
6180
7F00
7C00
6E00
6700
6380
F1C0
ENDCHAR

STARTCHAR S
ENCODING 83
SWIDTH 660 0
DWIDTH 9 0
BBX 8 10 0 0
BITMAP
7D
E7
C3
F1
7C
1F
87
C3
F7
BE
ENDCHAR

STARTCHAR T
ENCODING 84
SWIDTH 694 0
DWIDTH 11 0
BBX 10 10 0 0
BITMAP
7F80
FFC0
8C40
0C00
0C00
0C00
0C00
0C00
0C00
1E00
ENDCHAR

STARTCHAR U
ENCODING 85
SWIDTH 737 0
DWIDTH 11 0
BBX 10 10 0 0
BITMAP
F3C0
6180
6180
6180
6180
6180
6180
7380
3F00
1E00
ENDCHAR

STARTCHAR V
ENCODING 86
SWIDTH 696 0
DWIDTH 10 0
BBX 10 10 0 0
BITMAP
F3C0
6180
7380
3300
3300
3F00
1E00
1E00
0C00
0C00
ENDCHAR

STARTCHAR W
ENCODING 87
SWIDTH 929 0
DWIDTH 14 0
BBX 15 10 -1 0
BITMAP
F7DE
738C
738C
3188
39D8
3BD8
1AD0
1AD0
1EF0
0C60
ENDCHAR

STARTCHAR X
ENCODING 88
SWIDTH 769 0
DWIDTH 11 0
BBX 10 10 0 0
BITMAP
F3C0
7180
3B00
1E00
1C00
0E00
1E00
3700
6380
F3C0
ENDCHAR

STARTCHAR Y
ENCODING 89
SWIDTH 683 0
DWIDTH 9 0
BBX 10 10 -1 0
BITMAP
F3C0
7180
3300
3B00
1E00
1E00
0C00
0C00
0C00
1E00
ENDCHAR

STARTCHAR Z
ENCODING 90
SWIDTH 636 0
DWIDTH 10 0
BBX 9 10 0 0
BITMAP
7F80
6380
4700
0E00
1C00
1C00
3800
7080
E180
FF80
ENDCHAR

STARTCHAR bracketleft
ENCODING 91
SWIDTH 306 0
DWIDTH 5 0
BBX 3 13 1 -3
BITMAP
E0
C0
C0
C0
C0
C0
C0
C0
C0
C0
C0
C0
E0
ENDCHAR

STARTCHAR backslash
ENCODING 92
SWIDTH 593 0
DWIDTH 9 0
BBX 6 10 1 0
BITMAP
C0
C0
60
60
30
30
18
18
0C
0C
ENDCHAR

STARTCHAR bracketright
ENCODING 93
SWIDTH 306 0
DWIDTH 5 0
BBX 3 13 1 -3
BITMAP
E0
60
60
60
60
60
60
60
60
60
60
60
E0
ENDCHAR

STARTCHAR asciicircum
ENCODING 94
SWIDTH 620 0
DWIDTH 9 0
BBX 6 6 1 4
BITMAP
30
30
78
48
CC
CC
ENDCHAR

STARTCHAR underscore
ENCODING 95
SWIDTH 902 0
DWIDTH 7 0
BBX 7 1 0 -3
BITMAP
FE
ENDCHAR

STARTCHAR quoteleft
ENCODING 96
SWIDTH 324 0
DWIDTH 5 0
BBX 2 4 1 6
BITMAP
40
80
C0
C0
ENDCHAR

STARTCHAR a
ENCODING 97
SWIDTH 581 0
DWIDTH 8 0
BBX 8 7 0 0
BITMAP
7C
CE
C6
3E
C6
EE
7B
ENDCHAR

STARTCHAR b
ENCODING 98
SWIDTH 601 0
DWIDTH 9 0
BBX 9 10 -1 0
BITMAP
E000
6000
6000
6F00
7380
6180
6180
6180
7380
6F00
ENDCHAR

STARTCHAR c
ENCODING 99
SWIDTH 570 0
DWIDTH 8 0
BBX 7 7 0 0
BITMAP
7C
E6
C6
C0
C0
E6
7C
ENDCHAR

STARTCHAR d
ENCODING 100
SWIDTH 643 0
DWIDTH 9 0
BBX 9 10 0 0
BITMAP
0700
0300
0300
7B00
E700
C300
C300
C300
E700
7B80
ENDCHAR

STARTCHAR e
ENCODING 101
SWIDTH 568 0
DWIDTH 8 0
BBX 7 7 0 0
BITMAP
7C
E6
FE
C0
C2
E6
7C
ENDCHAR

STARTCHAR f
ENCODING 102
SWIDTH 385 0
DWIDTH 5 0
BBX 6 10 0 0
BITMAP
38
6C
60
F0
60
60
60
60
60
F0
ENDCHAR

STARTCHAR g
ENCODING 103
SWIDTH 574 0
DWIDTH 9 0
BBX 8 12 0 -4
BITMAP
03
3E
EC
C6
EE
7C
60
7C
7F
C3
C7
7C
ENDCHAR

STARTCHAR h
ENCODING 104
SWIDTH 668 0
DWIDTH 10 0
BBX 9 10 0 0
BITMAP
E000
6000
6000
6E00
7700
6300
6300
6300
6300
F780
ENDCHAR

STARTCHAR i
ENCODING 105
SWIDTH 355 0
DWIDTH 5 0
BBX 4 10 0 0
BITMAP
60
60
00
E0
60
60
60
60
60
F0
ENDCHAR

STARTCHAR j
ENCODING 106
SWIDTH 345 0
DWIDTH 6 0
BBX 5 14 -1 -4
BITMAP
18
18
00
38
18
18
18
18
18
18
18
D8
D8
70
ENDCHAR

STARTCHAR k
ENCODING 107
SWIDTH 645 0
DWIDTH 9 0
BBX 9 10 0 0
BITMAP
E000
6000
6000
6F00
6600
6C00
7C00
6600
6700
F780
ENDCHAR

STARTCHAR l
ENCODING 108
SWIDTH 343 0
DWIDTH 5 0
BBX 4 10 0 0
BITMAP
E0
60
60
60
60
60
60
60
60
F0
ENDCHAR

STARTCHAR m
ENCODING 109
SWIDTH 973 0
DWIDTH 15 0
BBX 14 7 0 0
BITMAP
EEF0
77B8
6318
6318
6318
6318
F7BC
ENDCHAR

STARTCHAR n
ENCODING 110
SWIDTH 672 0
DWIDTH 10 0
BBX 9 7 0 0
BITMAP
EE00
7700
6300
6300
6300
6300
F380
ENDCHAR

STARTCHAR o
ENCODING 111
SWIDTH 616 0
DWIDTH 9 0
BBX 8 7 0 0
BITMAP
7E
E7
C3
C3
C3
E7
7E
ENDCHAR

STARTCHAR p
ENCODING 112
SWIDTH 639 0
DWIDTH 9 0
BBX 9 11 -1 -4
BITMAP
EF00
7380
6180
6180
6180
7380
6F00
6000
6000
6000
F000
ENDCHAR

STARTCHAR q
ENCODING 113
SWIDTH 626 0
DWIDTH 9 0
BBX 9 11 0 -4
BITMAP
7B00
E700
C300
C300
C300
E700
7B00
0300
0300
0300
0780
ENDCHAR

STARTCHAR r
ENCODING 114
SWIDTH 462 0
DWIDTH 7 0
BBX 7 7 0 0
BITMAP
EC
7E
64
60
60
60
F0
ENDCHAR

STARTCHAR s
ENCODING 115
SWIDTH 512 0
DWIDTH 8 0
BBX 7 7 0 0
BITMAP
7E
C6
F0
7C
0E
C6
7C
ENDCHAR

STARTCHAR t
ENCODING 116
SWIDTH 464 0
DWIDTH 7 0
BBX 7 10 -1 0
BITMAP
00
30
70
FE
30
30
30
32
3A
1C
ENDCHAR

STARTCHAR u
ENCODING 117
SWIDTH 660 0
DWIDTH 10 0
BBX 9 7 0 0
BITMAP
E700
6300
6300
6300
6300
7700
3B80
ENDCHAR

STARTCHAR v
ENCODING 118
SWIDTH 585 0
DWIDTH 8 0
BBX 9 7 -1 0
BITMAP
F780
6300
7200
3600
3600
1C00
1C00
ENDCHAR

STARTCHAR w
ENCODING 119
SWIDTH 803 0
DWIDTH 11 0
BBX 12 7 -1 0
BITMAP
F6F0
6660
76E0
36C0
3FC0
1980
1980
ENDCHAR

STARTCHAR x
ENCODING 120
SWIDTH 597 0
DWIDTH 8 0
BBX 8 7 0 0
BITMAP
F7
76
3C
18
3C
6E
F7
ENDCHAR

STARTCHAR y
ENCODING 121
SWIDTH 607 0
DWIDTH 9 0
BBX 9 11 0 -4
BITMAP
F780
E300
6300
7600
3600
3400
1C00
1800
D800
D800
7000
ENDCHAR

STARTCHAR z
ENCODING 122
SWIDTH 565 0
DWIDTH 8 0
BBX 7 7 0 0
BITMAP
FE
CE
9C
38
72
E6
FE
ENDCHAR

STARTCHAR braceleft
ENCODING 123
SWIDTH 314 0
DWIDTH 6 0
BBX 4 13 1 -3
BITMAP
30
60
60
60
60
60
C0
60
60
60
60
60
30
ENDCHAR

STARTCHAR bar
ENCODING 124
SWIDTH 620 0
DWIDTH 8 0
BBX 2 10 3 0
BITMAP
C0
C0
C0
C0
C0
C0
C0
C0
C0
C0
ENDCHAR

STARTCHAR braceright
ENCODING 125
SWIDTH 314 0
DWIDTH 6 0
BBX 4 13 1 -3
BITMAP
C0
60
60
60
60
60
30
60
60
60
60
60
C0
ENDCHAR

STARTCHAR asciitilde
ENCODING 126
SWIDTH 620 0
DWIDTH 9 0
BBX 8 3 0 2
BITMAP
33
7E
CC
ENDCHAR

STARTCHAR exclamdown
ENCODING 161
SWIDTH 365 0
DWIDTH 5 0
BBX 2 10 1 -3
BITMAP
C0
C0
00
C0
C0
C0
C0
C0
C0
C0
ENDCHAR

STARTCHAR cent
ENCODING 162
SWIDTH 667 0
DWIDTH 9 0
BBX 7 10 1 0
BITMAP
18
18
7C
EE
C6
C0
E6
7C
18
18
ENDCHAR

STARTCHAR sterling
ENCODING 163
SWIDTH 667 0
DWIDTH 9 0
BBX 9 10 0 0
BITMAP
1E00
3F00
3300
3000
FE00
3000
3300
7980
DF80
7F00
ENDCHAR

STARTCHAR currency
ENCODING 164
SWIDTH 511 0
DWIDTH 9 0
BBX 7 7 1 1
BITMAP
C6
FE
6C
44
6C
FE
C6
ENDCHAR

STARTCHAR yen
ENCODING 165
SWIDTH 667 0
DWIDTH 9 0
BBX 10 10 -1 0
BITMAP
FBC0
7180
3B00
1E00
7F80
0C00
7F80
0C00
0C00
1E00
ENDCHAR

STARTCHAR brokenbar
ENCODING 166
SWIDTH 620 0
DWIDTH 8 0
BBX 2 10 3 0
BITMAP
C0
C0
C0
00
00
00
C0
C0
C0
C0
ENDCHAR

STARTCHAR section
ENCODING 167
SWIDTH 595 0
DWIDTH 9 0
BBX 7 13 1 -3
BITMAP
7C
EE
C6
F0
7C
CE
E6
76
3C
0E
C6
EE
7C
ENDCHAR

STARTCHAR dieresis
ENCODING 168
SWIDTH 510 0
DWIDTH 7 0
BBX 4 2 2 8
BITMAP
90
90
ENDCHAR

STARTCHAR copyright
ENCODING 169
SWIDTH 747 0
DWIDTH 12 0
BBX 10 10 1 0
BITMAP
3F00
6180
CEC0
9240
9040
9040
9240
CCC0
6180
3F00
ENDCHAR

STARTCHAR ordfeminine
ENCODING 170
SWIDTH 400 0
DWIDTH 7 0
BBX 5 7 1 3
BITMAP
70
D8
78
D8
E8
00
F8
ENDCHAR

STARTCHAR guillemotleft
ENCODING 171
SWIDTH 394 0
DWIDTH 8 0
BBX 6 5 0 1
BITMAP
24
6C
D8
6C
24
ENDCHAR

STARTCHAR logicalnot
ENCODING 172
SWIDTH 606 0
DWIDTH 9 0
BBX 7 4 1 1
BITMAP
FE
02
02
02
ENDCHAR

STARTCHAR hyphen
ENCODING 173
SWIDTH 360 0
DWIDTH 5 0
BBX 4 1 0 3
BITMAP
F0
ENDCHAR

STARTCHAR registered
ENCODING 174
SWIDTH 747 0
DWIDTH 12 0
BBX 10 10 1 0
BITMAP
3F00
6180
DCC0
9240
9240
9C40
9240
DAC0
6180
3F00
ENDCHAR

STARTCHAR macron
ENCODING 175
SWIDTH 451 0
DWIDTH 7 0
BBX 5 1 1 8
BITMAP
F8
ENDCHAR

STARTCHAR degree
ENCODING 176
SWIDTH 400 0
DWIDTH 6 0
BBX 4 4 1 6
BITMAP
60
90
90
60
ENDCHAR

STARTCHAR plusminus
ENCODING 177
SWIDTH 620 0
DWIDTH 9 0
BBX 7 7 1 0
BITMAP
10
10
FE
10
10
00
FE
ENDCHAR

STARTCHAR twosuperior
ENCODING 178
SWIDTH 667 0
DWIDTH 5 0
BBX 5 6 0 4
BITMAP
70
D8
18
30
60
F8
ENDCHAR

STARTCHAR threesuperior
ENCODING 179
SWIDTH 667 0
DWIDTH 5 0
BBX 5 6 0 4
BITMAP
70
98
30
18
98
70
ENDCHAR

STARTCHAR acute
ENCODING 180
SWIDTH 393 0
DWIDTH 6 0
BBX 4 2 1 8
BITMAP
70
C0
ENDCHAR

STARTCHAR mu
ENCODING 181
SWIDTH 660 0
DWIDTH 10 0
BBX 9 11 0 -4
BITMAP
E700
6300
6300
6300
6300
7700
7B80
6000
6000
6000
6000
ENDCHAR

STARTCHAR paragraph
ENCODING 182
SWIDTH 791 0
DWIDTH 12 0
BBX 10 11 1 -1
BITMAP
7FC0
FD80
FD80
FD80
FD80
7D80
0D80
0D80
0D80
0D80
1FC0
ENDCHAR

STARTCHAR periodcentered
ENCODING 183
SWIDTH 346 0
DWIDTH 5 0
BBX 2 2 1 3
BITMAP
C0
C0
ENDCHAR

STARTCHAR cedilla
ENCODING 184
SWIDTH 352 0
DWIDTH 5 0
BBX 4 3 0 -3
BITMAP
20
B0
60
ENDCHAR

STARTCHAR onesuperior
ENCODING 185
SWIDTH 667 0
DWIDTH 5 0
BBX 4 6 0 4
BITMAP
60
E0
60
60
60
F0
ENDCHAR

STARTCHAR ordmasculine
ENCODING 186
SWIDTH 400 0
DWIDTH 7 0
BBX 5 7 1 3
BITMAP
70
D8
D8
D8
70
00
F8
ENDCHAR

STARTCHAR guillemotright
ENCODING 187
SWIDTH 394 0
DWIDTH 8 0
BBX 6 5 1 1
BITMAP
90
D8
6C
D8
90
ENDCHAR

STARTCHAR onequarter
ENCODING 188
SWIDTH 111 0
DWIDTH 13 0
BBX 11 10 1 0
BITMAP
6080
E100
6100
6200
6440
F4C0
09C0
12C0
13E0
20C0
ENDCHAR

STARTCHAR onehalf
ENCODING 189
SWIDTH 111 0
DWIDTH 13 0
BBX 11 10 1 0
BITMAP
6080
E100
6100
6200
65C0
F760
0860
10C0
1180
23E0
ENDCHAR

STARTCHAR threequarters
ENCODING 190
SWIDTH 111 0
DWIDTH 13 0
BBX 12 10 0 0
BITMAP
7040
9880
3080
1900
9A20
7260
04E0
0960
09F0
1060
ENDCHAR

STARTCHAR questiondown
ENCODING 191
SWIDTH 669 0
DWIDTH 9 0
BBX 7 10 1 -3
BITMAP
18
18
00
18
38
70
E0
C6
E6
7C
ENDCHAR

STARTCHAR Agrave
ENCODING 192
SWIDTH 729 0
DWIDTH 10 0
BBX 11 10 -1 0
BITMAP
1C00
0600
0000
0600
0F00
1B80
3F80
31C0
60C0
F1E0
ENDCHAR

STARTCHAR Aacute
ENCODING 193
SWIDTH 729 0
DWIDTH 10 0
BBX 11 10 -1 0
BITMAP
0E00
1800
0000
0600
0F00
1B80
3F80
31C0
60C0
F1E0
ENDCHAR

STARTCHAR Acircumflex
ENCODING 194
SWIDTH 729 0
DWIDTH 10 0
BBX 11 11 -1 0
BITMAP
0400
0E00
1900
0000
0600
0F00
1B80
3F80
31C0
60C0
F1E0
ENDCHAR

STARTCHAR Atilde
ENCODING 195
SWIDTH 729 0
DWIDTH 10 0
BBX 11 10 -1 0
BITMAP
0680
0B00
0000
0600
0F00
1B80
3F80
31C0
60C0
F1E0
ENDCHAR

STARTCHAR Adieresis
ENCODING 196
SWIDTH 729 0
DWIDTH 10 0
BBX 11 10 -1 0
BITMAP
0900
0900
0000
0600
0F00
1B80
3F80
31C0
60C0
F1E0
ENDCHAR

STARTCHAR Aring
ENCODING 197
SWIDTH 729 0
DWIDTH 10 0
BBX 11 10 -1 0
BITMAP
0600
0D00
0600
0600
0F00
1B80
3F80
31C0
60C0
F1E0
ENDCHAR

STARTCHAR AE
ENCODING 198
SWIDTH 1149 0
DWIDTH 17 0
BBX 16 10 0 0
BITMAP
01FE
03FE
03C3
06C8
0CF8
1FF8
1FC8
30C3
60FE
F3FE
ENDCHAR

STARTCHAR Ccedilla
ENCODING 199
SWIDTH 731 0
DWIDTH 11 0
BBX 10 13 0 -3
BITMAP
3E80
7F80
E180
C080
C000
C000
C000
E1C0
7F80
3F00
0400
1600
0C00
ENDCHAR

STARTCHAR Egrave
ENCODING 200
SWIDTH 724 0
DWIDTH 10 0
BBX 9 10 0 0
BITMAP
3800
0C00
0000
FF00
7F00
6180
7800
6180
7F00
FF00
ENDCHAR

STARTCHAR Eacute
ENCODING 201
SWIDTH 724 0
DWIDTH 10 0
BBX 9 10 0 0
BITMAP
1C00
3000
0000
FF00
7F00
6180
7800
6180
7F00
FF00
ENDCHAR

STARTCHAR Ecircumflex
ENCODING 202
SWIDTH 724 0
DWIDTH 10 0
BBX 9 11 0 0
BITMAP
0800
1C00
3200
0000
FF00
7F00
6180
7800
6180
7F00
FF00
ENDCHAR

STARTCHAR Edieresis
ENCODING 203
SWIDTH 724 0
DWIDTH 10 0
BBX 9 10 0 0
BITMAP
2400
2400
0000
FF00
7F00
6180
7800
6180
7F00
FF00
ENDCHAR

STARTCHAR Igrave
ENCODING 204
SWIDTH 399 0
DWIDTH 5 0
BBX 4 10 0 0
BITMAP
E0
30
00
F0
60
60
60
60
60
F0
ENDCHAR

STARTCHAR Iacute
ENCODING 205
SWIDTH 399 0
DWIDTH 5 0
BBX 4 10 0 0
BITMAP
70
C0
00
F0
60
60
60
60
60
F0
ENDCHAR

STARTCHAR Icircumflex
ENCODING 206
SWIDTH 399 0
DWIDTH 5 0
BBX 5 11 0 0
BITMAP
20
70
C8
00
F0
60
60
60
60
60
F0
ENDCHAR

STARTCHAR Idieresis
ENCODING 207
SWIDTH 399 0
DWIDTH 5 0
BBX 4 10 0 0
BITMAP
90
90
00
F0
60
60
60
60
60
F0
ENDCHAR

STARTCHAR Eth
ENCODING 208
SWIDTH 782 0
DWIDTH 11 0
BBX 10 10 0 0
BITMAP
FE00
7F80
61C0
60C0
F8C0
60C0
60C0
61C0
7F80
FE00
ENDCHAR

STARTCHAR Ntilde
ENCODING 209
SWIDTH 745 0
DWIDTH 12 0
BBX 11 10 0 0
BITMAP
0D00
1600
0000
F1E0
78C0
6CC0
66C0
63C0
61C0
F0C0
ENDCHAR

STARTCHAR Ograve
ENCODING 210
SWIDTH 803 0
DWIDTH 11 0
BBX 10 10 0 0
BITMAP
1C00
0600
0000
3F00
7F80
C0C0
C0C0
C0C0
7F80
3F00
ENDCHAR

STARTCHAR Oacute
ENCODING 211
SWIDTH 803 0
DWIDTH 11 0
BBX 10 10 0 0
BITMAP
0E00
1800
0000
3F00
7F80
C0C0
C0C0
C0C0
7F80
3F00
ENDCHAR

STARTCHAR Ocircumflex
ENCODING 212
SWIDTH 803 0
DWIDTH 11 0
BBX 10 11 0 0
BITMAP
0800
1C00
3200
0000
3F00
7F80
C0C0
C0C0
C0C0
7F80
3F00
ENDCHAR

STARTCHAR Otilde
ENCODING 213
SWIDTH 803 0
DWIDTH 11 0
BBX 10 10 0 0
BITMAP
1A00
2C00
0000
3F00
7F80
C0C0
C0C0
C0C0
7F80
3F00
ENDCHAR

STARTCHAR Odieresis
ENCODING 214
SWIDTH 803 0
DWIDTH 11 0
BBX 10 10 0 0
BITMAP
1200
1200
0000
3F00
7F80
C0C0
C0C0
C0C0
7F80
3F00
ENDCHAR

STARTCHAR multiply
ENCODING 215
SWIDTH 620 0
DWIDTH 9 0
BBX 8 7 0 0
BITMAP
C3
66
3C
18
3C
66
C3
ENDCHAR

STARTCHAR Oslash
ENCODING 216
SWIDTH 804 0
DWIDTH 12 0
BBX 10 12 1 -1
BITMAP
00C0
3F80
7380
E2C0
C6C0
CCC0
CCC0
D8C0
D1C0
7380
7F00
C000
ENDCHAR

STARTCHAR Ugrave
ENCODING 217
SWIDTH 737 0
DWIDTH 11 0
BBX 10 10 0 0
BITMAP
1C00
0600
0000
F3C0
6180
6180
6180
6180
3F00
1E00
ENDCHAR

STARTCHAR Uacute
ENCODING 218
SWIDTH 737 0
DWIDTH 11 0
BBX 10 11 0 0
BITMAP
0E00
1800
0000
0000
F3C0
6180
6180
6180
6180
3F00
1E00
ENDCHAR

STARTCHAR Ucircumflex
ENCODING 219
SWIDTH 737 0
DWIDTH 11 0
BBX 10 11 0 0
BITMAP
0800
1C00
3200
0000
F3C0
6180
6180
6180
6180
3F00
1E00
ENDCHAR

STARTCHAR Udieresis
ENCODING 220
SWIDTH 737 0
DWIDTH 11 0
BBX 10 10 0 0
BITMAP
1200
1200
0000
F3C0
6180
6180
6180
6180
3F00
1E00
ENDCHAR

STARTCHAR Yacute
ENCODING 221
SWIDTH 683 0
DWIDTH 9 0
BBX 10 10 -1 0
BITMAP
0700
0C00
0000
F3C0
6180
3300
1E00
0C00
0C00
1E00
ENDCHAR

STARTCHAR Thorn
ENCODING 222
SWIDTH 659 0
DWIDTH 10 0
BBX 9 10 0 0
BITMAP
F000
6000
7F00
7F80
6180
6180
7F80
7F00
6000
F000
ENDCHAR

STARTCHAR germandbls
ENCODING 223
SWIDTH 652 0
DWIDTH 9 0
BBX 9 12 -1 -2
BITMAP
1E00
3300
3300
7600
3700
3180
3180
3180
3380
3700
6000
C000
ENDCHAR

STARTCHAR agrave
ENCODING 224
SWIDTH 581 0
DWIDTH 8 0
BBX 8 10 0 0
BITMAP
38
0C
00
7C
CE
C6
3E
C6
EE
7B
ENDCHAR

STARTCHAR aacute
ENCODING 225
SWIDTH 581 0
DWIDTH 8 0
BBX 8 10 0 0
BITMAP
1C
30
00
7C
CE
C6
3E
C6
EE
7B
ENDCHAR

STARTCHAR acircumflex
ENCODING 226
SWIDTH 581 0
DWIDTH 8 0
BBX 8 11 0 0
BITMAP
10
38
64
00
7C
CE
C6
3E
C6
EE
7B
ENDCHAR

STARTCHAR atilde
ENCODING 227
SWIDTH 581 0
DWIDTH 8 0
BBX 8 10 0 0
BITMAP
34
58
00
7C
CE
C6
3E
C6
EE
7B
ENDCHAR

STARTCHAR adieresis
ENCODING 228
SWIDTH 581 0
DWIDTH 8 0
BBX 8 10 0 0
BITMAP
24
24
00
7C
CE
C6
3E
C6
EE
7B
ENDCHAR

STARTCHAR aring
ENCODING 229
SWIDTH 581 0
DWIDTH 8 0
BBX 8 11 0 0
BITMAP
18
34
18
00
7C
CE
C6
3E
C6
EE
7B
ENDCHAR

STARTCHAR ae
ENCODING 230
SWIDTH 873 0
DWIDTH 13 0
BBX 12 7 0 0
BITMAP
7DE0
EF70
C7F0
3E00
E610
EF70
7BE0
ENDCHAR

STARTCHAR ccedilla
ENCODING 231
SWIDTH 570 0
DWIDTH 8 0
BBX 7 10 0 -3
BITMAP
7C
E6
C6
C0
C0
E6
7C
10
58
30
ENDCHAR

STARTCHAR egrave
ENCODING 232
SWIDTH 568 0
DWIDTH 8 0
BBX 7 10 0 0
BITMAP
70
18
00
7C
E6
FE
C0
C2
E6
7C
ENDCHAR

STARTCHAR eacute
ENCODING 233
SWIDTH 568 0
DWIDTH 8 0
BBX 7 10 0 0
BITMAP
38
60
00
7C
E6
FE
C0
C2
E6
7C
ENDCHAR

STARTCHAR ecircumflex
ENCODING 234
SWIDTH 568 0
DWIDTH 8 0
BBX 7 11 0 0
BITMAP
10
38
64
00
7C
E6
FE
C0
C2
E6
7C
ENDCHAR

STARTCHAR edieresis
ENCODING 235
SWIDTH 568 0
DWIDTH 8 0
BBX 7 10 0 0
BITMAP
48
48
00
7C
E6
FE
C0
C2
E6
7C
ENDCHAR

STARTCHAR igrave
ENCODING 236
SWIDTH 355 0
DWIDTH 5 0
BBX 4 10 0 0
BITMAP
E0
30
00
E0
60
60
60
60
60
F0
ENDCHAR

STARTCHAR iacute
ENCODING 237
SWIDTH 355 0
DWIDTH 5 0
BBX 4 10 0 0
BITMAP
70
C0
00
E0
60
60
60
60
60
F0
ENDCHAR

STARTCHAR icircumflex
ENCODING 238
SWIDTH 355 0
DWIDTH 5 0
BBX 5 11 0 0
BITMAP
20
70
C8
00
E0
60
60
60
60
60
F0
ENDCHAR

STARTCHAR idieresis
ENCODING 239
SWIDTH 355 0
DWIDTH 5 0
BBX 4 10 0 0
BITMAP
90
90
00
E0
60
60
60
60
60
F0
ENDCHAR

STARTCHAR eth
ENCODING 240
SWIDTH 616 0
DWIDTH 9 0
BBX 8 10 0 0
BITMAP
66
38
CC
7E
E7
C3
C3
C3
E7
7E
ENDCHAR

STARTCHAR ntilde
ENCODING 241
SWIDTH 672 0
DWIDTH 10 0
BBX 9 10 0 0
BITMAP
1A00
2C00
0000
EE00
7700
6300
6300
6300
6300
F380
ENDCHAR

STARTCHAR ograve
ENCODING 242
SWIDTH 616 0
DWIDTH 9 0
BBX 8 10 0 0
BITMAP
38
0C
00
7E
E7
C3
C3
C3
E7
7E
ENDCHAR

STARTCHAR oacute
ENCODING 243
SWIDTH 616 0
DWIDTH 9 0
BBX 8 10 0 0
BITMAP
1C
30
00
7E
E7
C3
C3
C3
E7
7E
ENDCHAR

STARTCHAR ocircumflex
ENCODING 244
SWIDTH 616 0
DWIDTH 9 0
BBX 8 11 0 0
BITMAP
10
38
64
00
7E
E7
C3
C3
C3
E7
7E
ENDCHAR

STARTCHAR otilde
ENCODING 245
SWIDTH 616 0
DWIDTH 9 0
BBX 8 10 0 0
BITMAP
34
58
00
7E
E7
C3
C3
C3
E7
7E
ENDCHAR

STARTCHAR odieresis
ENCODING 246
SWIDTH 616 0
DWIDTH 9 0
BBX 8 10 0 0
BITMAP
24
24
00
7E
E7
C3
C3
C3
E7
7E
ENDCHAR

STARTCHAR divide
ENCODING 247
SWIDTH 620 0
DWIDTH 9 0
BBX 8 7 0 0
BITMAP
18
18
00
FF
00
18
18
ENDCHAR

STARTCHAR oslash
ENCODING 248
SWIDTH 617 0
DWIDTH 9 0
BBX 8 9 0 -1
BITMAP
03
7E
E7
CF
DB
F3
E7
7C
C0
ENDCHAR

STARTCHAR ugrave
ENCODING 249
SWIDTH 660 0
DWIDTH 10 0
BBX 9 10 0 0
BITMAP
3800
0C00
0000
E700
6300
6300
6300
6300
7700
3B80
ENDCHAR

STARTCHAR uacute
ENCODING 250
SWIDTH 660 0
DWIDTH 10 0
BBX 9 10 0 0
BITMAP
1C00
3000
0000
E700
6300
6300
6300
6300
7700
3B80
ENDCHAR

STARTCHAR ucircumflex
ENCODING 251
SWIDTH 660 0
DWIDTH 10 0
BBX 9 11 0 0
BITMAP
0800
1C00
3200
0000
E700
6300
6300
6300
6300
7700
3B80
ENDCHAR

STARTCHAR udieresis
ENCODING 252
SWIDTH 660 0
DWIDTH 10 0
BBX 9 10 0 0
BITMAP
2400
2400
0000
E700
6300
6300
6300
6300
7700
3B80
ENDCHAR

STARTCHAR yacute
ENCODING 253
SWIDTH 607 0
DWIDTH 9 0
BBX 9 14 0 -4
BITMAP
0E00
1800
0000
F780
E300
6300
7600
3600
3400
1C00
1800
D800
D800
7000
ENDCHAR

STARTCHAR thorn
ENCODING 254
SWIDTH 639 0
DWIDTH 9 0
BBX 9 14 -1 -4
BITMAP
E000
6000
6000
6F00
7380
6180
6180
6180
7380
6F00
6000
6000
6000
F000
ENDCHAR

STARTCHAR ydieresis
ENCODING 255
SWIDTH 607 0
DWIDTH 9 0
BBX 9 14 0 -4
BITMAP
2400
2400
0000
F780
E300
6300
7600
3600
3400
1C00
1800
D800
D800
7000
ENDCHAR
ENDFONT
